<svg width="343" height="82" viewBox="0 0 343 82" fill="none" xmlns="http://www.w3.org/2000/svg">
<g clip-path="url(#clip0_1578_791)">
<path d="M118.268 30.5385H109.238L107.79 34.8541H101.621L110.375 10.4263H117.199L125.953 34.8541H119.715L118.268 30.5385ZM116.748 25.9437L113.751 17.0028L110.788 25.9437H116.748Z" fill="#20354D"/>
<path d="M139.48 15.9927C140.504 16.5475 141.292 17.282 141.841 18.1849V15.438H147.734V34.8195C147.734 36.6062 147.381 38.2245 146.684 39.6745C145.983 41.1244 144.914 42.2798 143.478 43.1368C142.042 43.9938 140.257 44.4223 138.12 44.4223C135.27 44.4223 132.963 43.7451 131.193 42.387C129.424 41.0288 128.412 39.1924 128.162 36.8702H133.986C134.168 37.6124 134.607 38.1977 135.297 38.6262C135.987 39.0547 136.835 39.2689 137.847 39.2689C139.064 39.2689 140.037 38.9131 140.761 38.2092C141.485 37.5014 141.849 36.369 141.849 34.8157V32.0688C141.273 32.9717 140.481 33.71 139.469 34.2763C138.457 34.8463 137.275 35.1294 135.918 35.1294C134.335 35.1294 132.898 34.7162 131.61 33.8937C130.322 33.0711 129.306 31.9004 128.56 30.3778C127.813 28.8589 127.438 27.1029 127.438 25.1058C127.438 23.1087 127.813 21.3603 128.56 19.853C129.306 18.3456 130.322 17.1864 131.61 16.3753C132.898 15.5642 134.335 15.1587 135.918 15.1587C137.275 15.1587 138.465 15.438 139.484 15.9927H139.48ZM140.617 21.6281C139.802 20.7712 138.81 20.3388 137.635 20.3388C136.46 20.3388 135.468 20.7635 134.653 21.609C133.838 22.4545 133.429 23.6214 133.429 25.1058C133.429 26.5902 133.838 27.7686 134.653 28.637C135.468 29.5055 136.464 29.9416 137.635 29.9416C138.806 29.9416 139.799 29.5131 140.617 28.6523C141.432 27.7953 141.841 26.6246 141.841 25.1364C141.841 23.6482 141.432 22.4813 140.617 21.6205V21.6281Z" fill="#20354D"/>
<path d="M170.03 26.5712H156.691C156.782 27.7763 157.169 28.6983 157.847 29.3372C158.525 29.9761 159.359 30.2937 160.344 30.2937C161.815 30.2937 162.838 29.6662 163.41 28.4152H169.681C169.359 29.6892 168.779 30.8408 167.942 31.8584C167.104 32.8799 166.051 33.6795 164.789 34.261C163.524 34.8426 162.114 35.1295 160.549 35.1295C158.666 35.1295 156.987 34.724 155.517 33.9129C154.046 33.1018 152.898 31.9426 152.072 30.4314C151.246 28.924 150.829 27.1603 150.829 25.1441C150.829 23.1279 151.239 21.3642 152.053 19.8569C152.868 18.3495 154.012 17.1903 155.483 16.3792C156.953 15.5681 158.643 15.1626 160.549 15.1626C162.455 15.1626 164.065 15.5567 165.513 16.3448C166.96 17.1329 168.09 18.2577 168.908 19.7191C169.723 21.1806 170.132 22.8869 170.132 24.8342C170.132 25.389 170.098 25.9705 170.03 26.575V26.5712ZM164.103 23.2657C164.103 22.2442 163.758 21.4331 163.069 20.8286C162.379 20.2241 161.519 19.9257 160.484 19.9257C159.45 19.9257 158.662 20.2165 157.987 20.7942C157.309 21.3757 156.888 22.1983 156.729 23.2657H164.103Z" fill="#20354D"/>
<path d="M190.344 17.4354C191.689 18.9084 192.36 20.9322 192.36 23.507V34.8505H186.502V24.3066C186.502 23.0096 186.168 21.9996 185.501 21.2804C184.835 20.5611 183.94 20.2015 182.815 20.2015C181.689 20.2015 180.791 20.5611 180.128 21.2804C179.461 21.9996 179.128 23.0096 179.128 24.3066V34.8505H173.236V15.4345H179.128V18.0093C179.727 17.1523 180.53 16.4713 181.542 15.974C182.553 15.4766 183.69 15.2241 184.952 15.2241C187.203 15.2241 189.003 15.9625 190.344 17.4316V17.4354Z" fill="#20354D"/>
<path d="M196.411 19.857C197.157 18.3496 198.173 17.1904 199.461 16.3793C200.75 15.5682 202.186 15.1627 203.77 15.1627C205.032 15.1627 206.187 15.4305 207.233 15.9623C208.279 16.4979 209.101 17.2133 209.696 18.12V9.10645H215.589V34.8541H209.696V32.0689C209.143 32.9986 208.359 33.737 207.335 34.2956C206.312 34.8503 205.122 35.1296 203.77 35.1296C202.186 35.1296 200.75 34.7164 199.461 33.8939C198.173 33.0713 197.157 31.9006 196.411 30.3779C195.664 28.8591 195.289 27.103 195.289 25.106C195.289 23.1089 195.664 21.3605 196.411 19.8531V19.857ZM208.472 21.6283C207.658 20.7713 206.665 20.339 205.49 20.339C204.315 20.339 203.323 20.7637 202.508 21.6092C201.693 22.4547 201.284 23.6216 201.284 25.106C201.284 26.5904 201.693 27.7687 202.508 28.6372C203.323 29.5057 204.319 29.9418 205.49 29.9418C206.661 29.9418 207.654 29.5133 208.472 28.6525C209.287 27.7955 209.696 26.6248 209.696 25.1366C209.696 23.6483 209.287 22.4815 208.472 21.6207V21.6283Z" fill="#20354D"/>
<path d="M219.81 19.8569C220.556 18.3495 221.572 17.1903 222.86 16.3792C224.149 15.5681 225.585 15.1626 227.169 15.1626C228.525 15.1626 229.715 15.4419 230.734 15.9966C231.757 16.5514 232.546 17.2859 233.095 18.1888V15.4419H238.987V34.8579H233.095V32.1109C232.519 33.0138 231.723 33.7445 230.7 34.3031C229.677 34.8579 228.487 35.1371 227.135 35.1371C225.573 35.1371 224.149 34.724 222.86 33.9014C221.572 33.0789 220.556 31.9082 219.81 30.3855C219.063 28.8666 218.688 27.1106 218.688 25.1135C218.688 23.1165 219.063 21.3681 219.81 19.8607V19.8569ZM231.875 21.6282C231.06 20.7712 230.067 20.3389 228.893 20.3389C227.718 20.3389 226.725 20.7636 225.911 21.6091C225.096 22.4546 224.687 23.6215 224.687 25.1059C224.687 26.5903 225.096 27.7686 225.911 28.6371C226.725 29.5055 227.722 29.9417 228.893 29.9417C230.064 29.9417 231.056 29.5132 231.875 28.6524C232.69 27.7954 233.099 26.6247 233.099 25.1365C233.099 23.6482 232.69 22.4814 231.875 21.6206V21.6282Z" fill="#20354D"/>
<path d="M102.743 57.1968C103.49 55.6894 104.505 54.5302 105.794 53.7192C107.082 52.9081 108.518 52.5025 110.102 52.5025C111.364 52.5025 112.52 52.7704 113.565 53.3021C114.611 53.8378 115.434 54.5532 116.028 55.4599V46.4463H121.921V72.194H116.028V69.4088C115.475 70.3385 114.691 71.0768 113.668 71.6354C112.645 72.1901 111.455 72.4694 110.102 72.4694C108.518 72.4694 107.082 72.0562 105.794 71.2337C104.505 70.4111 103.49 69.2404 102.743 67.7178C101.997 66.1989 101.621 64.4429 101.621 62.4458C101.621 60.4487 101.997 58.7004 102.743 57.193V57.1968ZM114.804 58.972C113.99 58.115 112.997 57.6827 111.822 57.6827C110.648 57.6827 109.655 58.1073 108.84 58.9529C108.025 59.7984 107.616 60.9652 107.616 62.4496C107.616 63.9341 108.025 65.1124 108.84 65.9809C109.655 66.8493 110.651 67.2855 111.822 67.2855C112.993 67.2855 113.986 66.857 114.804 65.9962C115.619 65.1392 116.028 63.9685 116.028 62.4802C116.028 60.992 115.619 59.8251 114.804 58.9643V58.972Z" fill="#20354D"/>
<path d="M144.217 63.911H130.879C130.97 65.1161 131.356 66.0381 132.034 66.6771C132.713 67.316 133.546 67.6335 134.532 67.6335C136.002 67.6335 137.025 67.0061 137.597 65.755H143.868C143.546 67.029 142.967 68.1806 142.129 69.1983C141.292 70.2198 140.238 71.0194 138.976 71.6009C137.711 72.1824 136.301 72.4693 134.736 72.4693C132.853 72.4693 131.174 72.0638 129.704 71.2527C128.234 70.4417 127.086 69.2824 126.26 67.7712C125.433 66.2639 125.017 64.5002 125.017 62.484C125.017 60.4678 125.426 58.7041 126.241 57.1967C127.055 55.6893 128.2 54.5301 129.67 53.7191C131.14 52.908 132.83 52.5024 134.736 52.5024C136.642 52.5024 138.253 52.8965 139.7 53.6846C141.148 54.4727 142.277 55.5975 143.095 57.059C143.91 58.5204 144.319 60.2267 144.319 62.1741C144.319 62.7288 144.285 63.3103 144.217 63.9148V63.911ZM138.291 60.6055C138.291 59.584 137.946 58.7729 137.256 58.1685C136.566 57.564 135.706 57.2656 134.672 57.2656C133.637 57.2656 132.849 57.5563 132.175 58.134C131.496 58.7156 131.076 59.5381 130.917 60.6055H138.291Z" fill="#20354D"/>
<path d="M150.765 71.6012C149.454 71.0235 148.419 70.2277 147.662 69.2177C146.904 68.2077 146.479 67.0791 146.385 65.8242H152.209C152.277 66.4976 152.588 67.0408 153.141 67.4579C153.694 67.8749 154.369 68.0853 155.176 68.0853C155.911 68.0853 156.479 67.9399 156.881 67.6491C157.283 67.3584 157.483 66.9834 157.483 66.5167C157.483 65.9581 157.195 65.5488 156.623 65.281C156.047 65.0132 155.119 64.7186 153.83 64.3934C152.451 64.0682 151.303 63.7277 150.382 63.3681C149.461 63.0084 148.669 62.4422 148.003 61.6617C147.336 60.8851 147.002 59.833 147.002 58.5131C147.002 57.3998 147.305 56.386 147.915 55.4678C148.525 54.5534 149.42 53.8265 150.602 53.2947C151.784 52.7629 153.194 52.4951 154.823 52.4951C157.237 52.4951 159.136 53.0996 160.526 54.3047C161.917 55.5099 162.713 57.1129 162.921 59.1061H157.476C157.385 58.4328 157.089 57.901 156.597 57.5069C156.1 57.1129 155.452 56.9139 154.649 56.9139C153.959 56.9139 153.433 57.0478 153.065 57.3156C152.697 57.5834 152.512 57.9469 152.512 58.4098C152.512 58.9684 152.804 59.3854 153.391 59.6609C153.978 59.9401 154.892 60.2156 156.131 60.4949C157.555 60.866 158.715 61.2333 159.613 61.5891C160.507 61.9487 161.295 62.5302 161.974 63.3298C162.652 64.1294 163.001 65.2044 163.023 66.5473C163.023 67.6836 162.709 68.6974 162.076 69.5926C161.443 70.4841 160.538 71.188 159.355 71.6968C158.173 72.2057 156.798 72.462 155.236 72.462C153.558 72.462 152.065 72.1712 150.757 71.5935L150.765 71.6012Z" fill="#20354D"/>
<path d="M174.012 57.1967C174.827 55.6893 175.964 54.5301 177.423 53.7191C178.882 52.908 180.553 52.5024 182.436 52.5024C184.85 52.5024 186.866 53.1414 188.484 54.4153C190.105 55.6893 191.166 57.4875 191.67 59.8097H185.399C184.869 58.3253 183.849 57.5831 182.334 57.5831C181.254 57.5831 180.393 58.0078 179.749 58.8533C179.105 59.6988 178.783 60.9116 178.783 62.4878C178.783 64.064 179.105 65.2768 179.749 66.1223C180.393 66.9678 181.254 67.3925 182.334 67.3925C183.849 67.3925 184.872 66.6503 185.399 65.1659H191.67C191.166 67.4384 190.098 69.225 188.465 70.5258C186.832 71.8266 184.823 72.4732 182.432 72.4732C180.549 72.4732 178.878 72.0676 177.419 71.2566C175.96 70.4455 174.823 69.2863 174.009 67.7751C173.194 66.2677 172.785 64.504 172.785 62.4878C172.785 60.4716 173.194 58.7079 174.009 57.2005L174.012 57.1967Z" fill="#20354D"/>
<path d="M203.288 53.4899C204.323 52.8739 205.471 52.5679 206.737 52.5679V58.8652H205.119C203.648 58.8652 202.546 59.1827 201.811 59.8216C201.076 60.4605 200.708 61.5777 200.708 63.1807V72.1943H194.816V52.7783H200.708V56.0149C201.398 54.9475 202.258 54.1059 203.292 53.4937L203.288 53.4899Z" fill="#20354D"/>
<path d="M227.582 63.9112H214.243C214.334 65.1163 214.721 66.0383 215.399 66.6772C216.077 67.3161 216.911 67.6337 217.896 67.6337C219.366 67.6337 220.39 67.0062 220.962 65.7552H227.233C226.911 67.0292 226.331 68.1808 225.494 69.1984C224.656 70.2199 223.603 71.0195 222.341 71.601C221.075 72.1826 219.666 72.4695 218.101 72.4695C216.218 72.4695 214.539 72.064 213.069 71.2529C211.598 70.4418 210.45 69.2826 209.624 67.7714C208.798 66.264 208.381 64.5003 208.381 62.4841C208.381 60.4679 208.791 58.7042 209.605 57.1969C210.42 55.6895 211.564 54.5303 213.035 53.7192C214.505 52.9081 216.195 52.5026 218.101 52.5026C220.007 52.5026 221.617 52.8967 223.065 53.6848C224.512 54.4729 225.642 55.5977 226.46 57.0591C227.275 58.5206 227.684 60.2269 227.684 62.1743C227.684 62.729 227.65 63.3105 227.582 63.915V63.9112ZM222.068 47.8007L213.762 51.3166V47.2115L222.068 43.1753V47.8045V47.8007ZM221.655 60.6057C221.655 59.5842 221.31 58.7731 220.621 58.1686C219.931 57.5642 219.071 57.2657 218.036 57.2657C217.002 57.2657 216.214 57.5565 215.539 58.1342C214.861 58.7157 214.44 59.5383 214.281 60.6057H221.655Z" fill="#20354D"/>
<path d="M230.738 57.1967C231.485 55.6893 232.5 54.5301 233.789 53.7191C235.077 52.908 236.513 52.5024 238.097 52.5024C239.454 52.5024 240.643 52.7817 241.663 53.3365C242.686 53.8912 243.474 54.6258 244.023 55.5287V52.7817H249.916V72.1977H244.023V69.4508C243.447 70.3537 242.652 71.0844 241.629 71.643C240.606 72.1977 239.416 72.477 238.063 72.477C236.502 72.477 235.077 72.0638 233.789 71.2413C232.5 70.4187 231.485 69.248 230.738 67.7253C229.992 66.2065 229.617 64.4504 229.617 62.4534C229.617 60.4563 229.992 58.7079 230.738 57.2005V57.1967ZM242.8 58.9719C241.985 58.1149 240.992 57.6826 239.817 57.6826C238.643 57.6826 237.65 58.1072 236.835 58.9528C236.02 59.7983 235.611 60.9651 235.611 62.4495C235.611 63.934 236.02 65.1123 236.835 65.9808C237.65 66.8492 238.646 67.2854 239.817 67.2854C240.988 67.2854 241.981 66.8569 242.8 65.9961C243.614 65.1391 244.023 63.9684 244.023 62.4801C244.023 60.9919 243.614 59.825 242.8 58.9642V58.9719Z" fill="#20354D"/>
<path d="M264.906 67.1477V72.1939H261.909C259.772 72.1939 258.104 71.6659 256.911 70.61C255.717 69.5541 255.119 67.8325 255.119 65.4414V57.7171H252.773V52.7779H255.119V48.0454H261.011V52.7779H264.872V57.7171H261.011V65.5102C261.011 66.0917 261.147 66.5088 261.424 66.7613C261.701 67.0176 262.159 67.1438 262.803 67.1438H264.906V67.1477Z" fill="#20354D"/>
<path d="M286.202 63.911H272.864C272.955 65.1161 273.341 66.0381 274.02 66.6771C274.698 67.316 275.531 67.6335 276.517 67.6335C277.987 67.6335 279.01 67.0061 279.582 65.755H285.854C285.531 67.029 284.952 68.1806 284.114 69.1983C283.277 70.2198 282.223 71.0194 280.962 71.6009C279.696 72.1824 278.286 72.4693 276.721 72.4693C274.838 72.4693 273.159 72.0638 271.689 71.2527C270.219 70.4417 269.071 69.2824 268.245 67.7712C267.419 66.2639 267.002 64.5002 267.002 62.484C267.002 60.4678 267.411 58.7041 268.226 57.1967C269.04 55.6893 270.185 54.5301 271.655 53.7191C273.125 52.908 274.815 52.5024 276.721 52.5024C278.627 52.5024 280.238 52.8965 281.685 53.6846C283.133 54.4727 284.262 55.5975 285.081 57.059C285.895 58.5204 286.304 60.2267 286.304 62.1741C286.304 62.7288 286.27 63.3103 286.202 63.9148V63.911ZM280.276 60.6055C280.276 59.584 279.931 58.7729 279.241 58.1685C278.552 57.564 277.691 57.2656 276.657 57.2656C275.622 57.2656 274.834 57.5563 274.16 58.134C273.481 58.7156 273.061 59.5381 272.902 60.6055H280.276Z" fill="#20354D"/>
<path d="M308.4 52.7778V72.1938H302.508V69.5502C301.909 70.4072 301.098 71.0996 300.079 71.6199C299.055 72.1402 297.926 72.4042 296.683 72.4042C295.213 72.4042 293.913 72.0752 292.788 71.4133C291.663 70.7515 290.791 69.795 290.17 68.544C289.548 67.2929 289.237 65.82 289.237 64.1252V52.7817H295.096V63.3256C295.096 64.6264 295.429 65.6325 296.096 66.3518C296.763 67.071 297.657 67.4307 298.783 67.4307C299.908 67.4307 300.84 67.071 301.507 66.3518C302.174 65.6325 302.508 64.6225 302.508 63.3256V52.7817H308.4V52.7778Z" fill="#20354D"/>
<path d="M321.113 53.4899C322.147 52.8739 323.296 52.5679 324.561 52.5679V58.8652H322.943C321.473 58.8652 320.37 59.1827 319.635 59.8216C318.9 60.4605 318.532 61.5777 318.532 63.1807V72.1943H312.64V52.7783H318.532V56.0149C319.222 54.9475 320.082 54.1059 321.117 53.4937L321.113 53.4899Z" fill="#20354D"/>
<path d="M330.73 71.6012C329.419 71.0235 328.385 70.2277 327.627 69.2177C326.869 68.2077 326.445 67.0791 326.35 65.8242H332.174C332.242 66.4976 332.553 67.0408 333.106 67.4579C333.659 67.8749 334.334 68.0853 335.141 68.0853C335.876 68.0853 336.445 67.9399 336.846 67.6491C337.248 67.3584 337.449 66.9834 337.449 66.5167C337.449 65.9581 337.161 65.5488 336.589 65.281C336.013 65.0132 335.084 64.7186 333.796 64.3934C332.417 64.0682 331.268 63.7277 330.348 63.3681C329.427 63.0084 328.635 62.4422 327.968 61.6617C327.301 60.8851 326.967 59.833 326.967 58.5131C326.967 57.3998 327.271 56.386 327.881 55.4678C328.491 54.5534 329.385 53.8265 330.567 53.2947C331.75 52.7629 333.159 52.4951 334.789 52.4951C337.202 52.4951 339.101 53.0996 340.491 54.3047C341.882 55.5099 342.678 57.1129 342.886 59.1061H337.441C337.35 58.4328 337.055 57.901 336.562 57.5069C336.066 57.1129 335.418 56.9139 334.614 56.9139C333.925 56.9139 333.398 57.0478 333.03 57.3156C332.663 57.5834 332.477 57.9469 332.477 58.4098C332.477 58.9684 332.769 59.3854 333.356 59.6609C333.944 59.9401 334.857 60.2156 336.096 60.4949C337.521 60.866 338.68 61.2333 339.578 61.5891C340.473 61.9487 341.261 62.5302 341.939 63.3298C342.617 64.1294 342.966 65.2044 342.989 66.5473C342.989 67.6836 342.674 68.6974 342.041 69.5926C341.409 70.4841 340.503 71.188 339.321 71.6968C338.138 72.2057 336.763 72.462 335.202 72.462C333.523 72.462 332.03 72.1712 330.723 71.5935L330.73 71.6012Z" fill="#20354D"/>
<path d="M28.7722 3.08475C28.7722 1.53912 27.6846 0.288086 26.3432 0.288086H22.1977C20.8563 0.288086 19.7688 1.53912 19.7688 3.08475V13.3264H28.7722V3.08475Z" fill="#20354D"/>
<path d="M60.2916 3.08475C60.2916 1.53912 59.204 0.288086 57.8626 0.288086H53.7171C52.3757 0.288086 51.2882 1.53912 51.2882 3.08475V13.3264H60.2916V3.08475Z" fill="#20354D"/>
<path d="M77.0289 13.3267H60.2916V14.9297C60.2916 16.4753 59.2041 17.7263 57.8626 17.7263H53.7171C52.3757 17.7263 51.2882 16.4753 51.2882 14.9297V13.3267H28.776V14.9297C28.776 16.4753 27.6884 17.7263 26.347 17.7263H22.2015C20.8601 17.7263 19.7726 16.4753 19.7726 14.9297V13.3267H3.03144C1.35657 13.3267 0 14.8914 0 16.8196V35.2562C0 37.1806 1.35657 38.7453 3.03144 38.7453H77.0251C78.7 38.7453 80.0566 37.1844 80.0566 35.2524V16.8158C80.0566 14.8876 78.7 13.3267 77.0251 13.3267H77.0289Z" fill="#20354D"/>
<path d="M77.0592 43.1333H45.1382C43.4807 43.1333 42.137 44.4899 42.137 46.1633V76.7775C42.137 78.4509 43.4807 79.8075 45.1382 79.8075H77.0592C78.7167 79.8075 80.0604 78.4509 80.0604 76.7775V46.1633C80.0604 44.4899 78.7167 43.1333 77.0592 43.1333Z" fill="#72E6A3"/>
<path d="M18.8935 81.2882C29.328 81.2882 37.7869 72.7478 37.7869 62.2127C37.7869 51.6776 29.328 43.1372 18.8935 43.1372C8.45889 43.1372 0 51.6776 0 62.2127C0 72.7478 8.45889 81.2882 18.8935 81.2882Z" fill="#FFAAD8"/>
</g>
<defs>
<clipPath id="clip0_1578_791">
<rect width="343" height="81" fill="white" transform="translate(0 0.288086)"/>
</clipPath>
</defs>
</svg>
